{
  "accessors": [
    {
      "bufferView": 2,
      "componentType": 5126,
      "count": 144,
      "max": [
        -0.5528960227966309,
        1.2073709964752197,
        -0.9962729811668396
      ],
      "min": [
        -0.9177190065383911,
        -1.5187519788742065,
        -1.550907015800476
      ],
      "type": "VEC3"
    },
    {
      "bufferView": 2,
      "byteOffset": 1728,
      "componentType": 5126,
      "count": 144,
      "max": [
        0.9954860210418701,
        0.7837801575660706,
        0.9866037368774414
      ],
      "min": [
        -0.9954476356506348,
        -0.7872194647789001,
        -0.9865218997001648
      ],
      "type": "VEC3"
    },
    {
      "bufferView": 3,
      "componentType": 5126,
      "count": 144,
      "max": [
        0.9954777359962463,
        0.3147023022174835,
        0.9865198731422424,
        1.0
      ],
      "min": [
        -0.9955179691314697,
        -0.3119736313819885,
        -0.9865158796310425,
        -1.0
      ],
      "type": "VEC4"
    },
    {
      "bufferView": 1,
      "componentType": 5126,
      "count": 144,
      "max": [
        0.9576889872550964,
        0.9836490154266357
      ],
      "min": [
        0.01617399975657463,
        0.01617399975657463
      ],
      "type": "VEC2"
    },
    {
      "bufferView": 0,
      "componentType": 5125,
      "count": 288,
      "type": "SCALAR"
    },
    {
      "bufferView": 2,
      "byteOffset": 3456,
      "componentType": 5126,
      "count": 144,
      "max": [
        -0.5528960227966309,
        1.2073709964752197,
        1.550907015800476
      ],
      "min": [
        -0.9177190065383911,
        -1.5187519788742065,
        0.9962729811668396
      ],
      "type": "VEC3"
    },
    {
      "bufferView": 2,
      "byteOffset": 5184,
      "componentType": 5126,
      "count": 144,
      "max": [
        0.9953908920288086,
        0.7939026951789856,
        0.9864866137504578
      ],
      "min": [
        -0.995465099811554,
        -0.7759096622467041,
        -0.9865999817848206
      ],
      "type": "VEC3"
    },
    {
      "bufferView": 3,
      "byteOffset": 2304,
      "componentType": 5126,
      "count": 144,
      "max": [
        0.9955103993415833,
        0.2869560122489929,
        0.9865185022354126,
        1.0
      ],
      "min": [
        -0.9955092668533325,
        -0.3365747034549713,
        -0.9865224361419678,
        -1.0
      ],
      "type": "VEC4"
    },
    {
      "bufferView": 1,
      "byteOffset": 1152,
      "componentType": 5126,
      "count": 144,
      "max": [
        0.9576770067214966,
        0.9838269948959351
      ],
      "min": [
        0.01617399975657463,
        0.01617399975657463
      ],
      "type": "VEC2"
    },
    {
      "bufferView": 0,
      "byteOffset": 1152,
      "componentType": 5125,
      "count": 288,
      "type": "SCALAR"
    },
    {
      "bufferView": 2,
      "byteOffset": 6912,
      "componentType": 5126,
      "count": 144,
      "max": [
        1.7826069593429565,
        1.2073709964752197,
        0.052358999848365784
      ],
      "min": [
        1.1586229801177979,
        -1.5187519788742065,
        -0.052358999848365784
      ],
      "type": "VEC3"
    },
    {
      "bufferView": 2,
      "byteOffset": 8640,
      "componentType": 5126,
      "count": 144,
      "max": [
        0.8694463968276978,
        0.7853558659553528,
        0.8761858940124512
      ],
      "min": [
        -0.8691152930259705,
        -0.7853937149047852,
        -0.878845751285553
      ],
      "type": "VEC3"
    },
    {
      "bufferView": 3,
      "byteOffset": 4608,
      "componentType": 5126,
      "count": 144,
      "max": [
        0.9950891137123108,
        0.30216944217681885,
        0.9851697087287903,
        1.0
      ],
      "min": [
        -0.995359480381012,
        -0.2959478497505188,
        -0.9999998807907104,
        -1.0
      ],
      "type": "VEC4"
    },
    {
      "bufferView": 1,
      "byteOffset": 2304,
      "componentType": 5126,
      "count": 144,
      "max": [
        0.9576889872550964,
        0.9812679886817932
      ],
      "min": [
        0.01617399975657463,
        0.01617399975657463
      ],
      "type": "VEC2"
    },
    {
      "bufferView": 0,
      "byteOffset": 2304,
      "componentType": 5125,
      "count": 288,
      "type": "SCALAR"
    },
    {
      "bufferView": 2,
      "byteOffset": 10368,
      "componentType": 5126,
      "count": 3722,
      "max": [
        1.293902039527893,
        1.3428369760513306,
        1.2939200401306152
      ],
      "min": [
        -1.293902039527893,
        1.1753239631652832,
        -1.2939200401306152
      ],
      "type": "VEC3"
    },
    {
      "bufferView": 2,
      "byteOffset": 55032,
      "componentType": 5126,
      "count": 3722,
      "max": [
        0.9999991059303284,
        0.9999983310699463,
        0.9999991059303284
      ],
      "min": [
        -0.9999991059303284,
        -1.0,
        -0.9999991059303284
      ],
      "type": "VEC3"
    },
    {
      "bufferView": 3,
      "byteOffset": 6912,
      "componentType": 5126,
      "count": 3722,
      "max": [
        0.870512843132019,
        0.9999991059303284,
        0.8694502711296082,
        1.0
      ],
      "min": [
        -0.9980563521385193,
        -0.9999991059303284,
        -0.8613191246986389,
        1.0
      ],
      "type": "VEC4"
    },
    {
      "bufferView": 1,
      "byteOffset": 3456,
      "componentType": 5126,
      "count": 3722,
      "max": [
        0.8624979853630066,
        0.8561199903488159
      ],
      "min": [
        0.01617399975657463,
        0.4093869924545288
      ],
      "type": "VEC2"
    },
    {
      "bufferView": 0,
      "byteOffset": 3456,
      "componentType": 5125,
      "count": 19872,
      "type": "SCALAR"
    }
  ],
  "asset": {
    "extras": {
      "author": "AmirulIqwan (https://sketchfab.com/AmirulIqwan)",
      "license": "CC-BY-4.0 (http://creativecommons.org/licenses/by/4.0/)",
      "source": "https://sketchfab.com/3d-models/tripod-stand-c2773043c472429c86b4ee3b28f9b156",
      "title": "Tripod stand"
    },
    "generator": "Sketchfab-15.17.0",
    "version": "2.0"
  },
  "bufferViews": [
    {
      "buffer": 0,
      "byteLength": 82944,
      "name": "floatBufferViews",
      "target": 34963
    },
    {
      "buffer": 0,
      "byteLength": 33232,
      "byteOffset": 82944,
      "byteStride": 8,
      "name": "floatBufferViews",
      "target": 34962
    },
    {
      "buffer": 0,
      "byteLength": 99696,
      "byteOffset": 116176,
      "byteStride": 12,
      "name": "floatBufferViews",
      "target": 34962
    },
    {
      "buffer": 0,
      "byteLength": 66464,
      "byteOffset": 215872,
      "byteStride": 16,
      "name": "floatBufferViews",
      "target": 34962
    }
  ],
  "buffers": [
    {
      "byteLength": 282336,
      "uri": "scene.bin"
    }
  ],
  "images": [
    {
      "uri": "textures/None_baseColor.jpeg"
    },
    {
      "uri": "textures/None_metallicRoughness.png"
    },
    {
      "uri": "textures/None_normal.png"
    }
  ],
  "materials": [
    {
      "doubleSided": true,
      "name": "None",
      "normalTexture": {
        "index": 2
      },
      "pbrMetallicRoughness": {
        "baseColorTexture": {
          "index": 0
        },
        "metallicRoughnessTexture": {
          "index": 1
        }
      }
    }
  ],
  "meshes": [
    {
      "name": "defaultMaterial",
      "primitives": [
        {
          "attributes": {
            "NORMAL": 1,
            "POSITION": 0,
            "TANGENT": 2,
            "TEXCOORD_0": 3
          },
          "indices": 4,
          "material": 0,
          "mode": 4
        }
      ]
    },
    {
      "name": "defaultMaterial",
      "primitives": [
        {
          "attributes": {
            "NORMAL": 6,
            "POSITION": 5,
            "TANGENT": 7,
            "TEXCOORD_0": 8
          },
          "indices": 9,
          "material": 0,
          "mode": 4
        }
      ]
    },
    {
      "name": "defaultMaterial",
      "primitives": [
        {
          "attributes": {
            "NORMAL": 11,
            "POSITION": 10,
            "TANGENT": 12,
            "TEXCOORD_0": 13
          },
          "indices": 14,
          "material": 0,
          "mode": 4
        }
      ]
    },
    {
      "name": "defaultMaterial",
      "primitives": [
        {
          "attributes": {
            "NORMAL": 16,
            "POSITION": 15,
            "TANGENT": 17,
            "TEXCOORD_0": 18
          },
          "indices": 19,
          "material": 0,
          "mode": 4
        }
      ]
    }
  ],
  "nodes": [
    {
      "children": [
        1
      ],
      "matrix": [
        1.0,
        0.0,
        0.0,
        0.0,
        0.0,
        2.220446049250313e-16,
        -1.0,
        0.0,
        0.0,
        1.0,
        2.220446049250313e-16,
        0.0,
        0.0,
        0.0,
        0.0,
        1.0
      ],
      "name": "Sketchfab_model"
    },
    {
      "children": [
        2,
        4,
        6,
        8
      ],
      "matrix": [
        1.0,
        0.0,
        0.0,
        0.0,
        0.0,
        -4.371139006309477e-08,
        0.999999999999999,
        0.0,
        0.0,
        -0.999999999999999,
        -4.371139006309477e-08,
        0.0,
        0.0,
        0.0,
        0.0,
        1.0
      ],
      "name": "Collada visual scene group"
    },
    {
      "children": [
        3
      ],
      "name": "Cylinder.003_Cylinder.004"
    },
    {
      "mesh": 0,
      "name": "defaultMaterial"
    },
    {
      "children": [
        5
      ],
      "name": "Cylinder.002_Cylinder.003"
    },
    {
      "mesh": 1,
      "name": "defaultMaterial"
    },
    {
      "children": [
        7
      ],
      "name": "Cylinder.001_Cylinder.002"
    },
    {
      "mesh": 2,
      "name": "defaultMaterial"
    },
    {
      "children": [
        9
      ],
      "name": "Tripod_Cylinder.001"
    },
    {
      "mesh": 3,
      "name": "defaultMaterial"
    }
  ],
  "samplers": [
    {
      "magFilter": 9729,
      "minFilter": 9987,
      "wrapS": 10497,
      "wrapT": 10497
    }
  ],
  "scene": 0,
  "scenes": [
    {
      "name": "Sketchfab_Scene",
      "nodes": [
        0
      ]
    }
  ],
  "textures": [
    {
      "sampler": 0,
      "source": 0
    },
    {
      "sampler": 0,
      "source": 1
    },
    {
      "sampler": 0,
      "source": 2
    }
  ]
}
