{
	"asset":{
		"generator":"Khronos glTF Blender I/O v4.1.63",
		"version":"2.0"
	},
	"extensionsUsed":[
		"KHR_materials_clearcoat"
	],
	"scene":0,
	"scenes":[
		{
			"name":"Scene",
			"nodes":[
				0
			]
		}
	],
	"nodes":[
		{
			"mesh":0,
			"name":"lab_beaker_b_0"
		}
	],
	"materials":[
		{
			"alphaMode":"BLEND",
			"extensions":{
				"KHR_materials_clearcoat":{
					"clearcoatFactor":1,
					"clearcoatRoughnessFactor":0.03999999910593033
				}
			},
			"name":"lab_beaker_a",
			"pbrMetallicRoughness":{
				"baseColorTexture":{
					"index":0
				},
				"metallicFactor":0.4455626904964447,
				"roughnessFactor":0
			}
		}
	],
	"meshes":[
		{
			"name":"lab_beaker_b_0",
			"primitives":[
				{
					"attributes":{
						"POSITION":0,
						"NORMAL":1,
						"TEXCOORD_0":2
					},
					"indices":3,
					"material":0
				}
			]
		}
	],
	"textures":[
		{
			"sampler":0,
			"source":0
		}
	],
	"images":[
		{
			"mimeType":"image/png",
			"name":"lab_beaker_a_baseColor",
			"uri":"textures/lab_beaker_a_baseColor.png"
		}
	],
	"accessors":[
		{
			"bufferView":0,
			"componentType":5126,
			"count":502,
			"max":[
				3.6787636280059814,
				4.927335262298584,
				3.361689329147339
			],
			"min":[
				-3.3725264072418213,
				-3.990185022354126,
				-3.361689805984497
			],
			"type":"VEC3"
		},
		{
			"bufferView":1,
			"componentType":5126,
			"count":502,
			"type":"VEC3"
		},
		{
			"bufferView":2,
			"componentType":5126,
			"count":502,
			"type":"VEC2"
		},
		{
			"bufferView":3,
			"componentType":5123,
			"count":2376,
			"type":"SCALAR"
		}
	],
	"bufferViews":[
		{
			"buffer":0,
			"byteLength":6024,
			"byteOffset":0,
			"target":34962
		},
		{
			"buffer":0,
			"byteLength":6024,
			"byteOffset":6024,
			"target":34962
		},
		{
			"buffer":0,
			"byteLength":4016,
			"byteOffset":12048,
			"target":34962
		},
		{
			"buffer":0,
			"byteLength":4752,
			"byteOffset":16064,
			"target":34963
		}
	],
	"samplers":[
		{
			"magFilter":9729,
			"minFilter":9987
		}
	],
	"buffers":[
		{
			"byteLength":20816,
			"uri":"beaker_small.bin"
		}
	]
}
