{
	"asset":{
		"generator":"Khronos glTF Blender I/O v4.1.63",
		"version":"2.0"
	},
	"scene":0,
	"scenes":[
		{
			"name":"Scene",
			"nodes":[
				0
			]
		}
	],
	"nodes":[
		{
			"mesh":0,
			"name":"lab_cylinder_c_0"
		}
	],
	"materials":[
		{
			"alphaMode":"BLEND",
			"name":"lab_cylinder_a",
			"pbrMetallicRoughness":{
				"baseColorTexture":{
					"index":0
				},
				"metallicFactor":0.2813980281352997,
				"roughnessFactor":0
			}
		}
	],
	"meshes":[
		{
			"name":"lab_cylinder_c_0",
			"primitives":[
				{
					"attributes":{
						"POSITION":0,
						"NORMAL":1,
						"TEXCOORD_0":2
					},
					"indices":3,
					"material":0
				}
			]
		}
	],
	"textures":[
		{
			"sampler":0,
			"source":0
		}
	],
	"images":[
		{
			"mimeType":"image/png",
			"name":"lab_cylinder_a_baseColor",
			"uri":"textures/lab_cylinder_a_baseColor.png"
		}
	],
	"accessors":[
		{
			"bufferView":0,
			"componentType":5126,
			"count":362,
			"max":[
				1.690111756324768,
				6.365620136260986,
				1.6902490854263306
			],
			"min":[
				-1.6903883218765259,
				-4.941679000854492,
				-1.6902507543563843
			],
			"type":"VEC3"
		},
		{
			"bufferView":1,
			"componentType":5126,
			"count":362,
			"type":"VEC3"
		},
		{
			"bufferView":2,
			"componentType":5126,
			"count":362,
			"type":"VEC2"
		},
		{
			"bufferView":3,
			"componentType":5123,
			"count":1464,
			"type":"SCALAR"
		}
	],
	"bufferViews":[
		{
			"buffer":0,
			"byteLength":4344,
			"byteOffset":0,
			"target":34962
		},
		{
			"buffer":0,
			"byteLength":4344,
			"byteOffset":4344,
			"target":34962
		},
		{
			"buffer":0,
			"byteLength":2896,
			"byteOffset":8688,
			"target":34962
		},
		{
			"buffer":0,
			"byteLength":2928,
			"byteOffset":11584,
			"target":34963
		}
	],
	"samplers":[
		{
			"magFilter":9729,
			"minFilter":9987
		}
	],
	"buffers":[
		{
			"byteLength":14512,
			"uri":"cylinder.bin"
		}
	]
}
